<svg width="53" height="41" viewBox="0 0 53 41" fill="none" xmlns="http://www.w3.org/2000/svg">
<path d="M21.2922 9.81548C22.6176 9.38914 23.1734 8.17574 22.5748 7.19189L20.4798 3.81403C19.8813 2.86331 18.4276 2.43665 17.1449 2.86331C13.5107 4.04392 10.3896 5.58528 7.90975 7.45458C4.87411 9.6515 2.82186 12.1767 1.71022 14.9643C0.598575 17.7849 0 21.6216 0 26.508V36.576C0 37.6582 1.1544 38.5437 2.56532 38.5437H19.3682C20.7791 38.5437 21.9335 37.6582 21.9335 36.576V23.6877C21.9335 22.6051 20.7791 21.72 19.3682 21.72H11.3302C11.4157 18.4074 12.4418 15.7513 14.3231 13.7505C15.8622 12.1442 18.171 10.8324 21.2922 9.81548Z" fill="white"/>
<path d="M51.4775 9.81409C52.8029 9.38776 53.3583 8.17435 52.7601 7.19051L50.6651 3.84577C50.0665 2.89472 48.6128 2.46839 47.3302 2.89472C43.7387 4.07533 40.6599 5.61669 38.1378 7.45319C35.1017 9.68324 33.0071 12.2084 31.8951 14.996C30.7834 17.7504 30.228 21.5877 30.228 26.507V36.575C30.228 37.6572 31.3824 38.5427 32.7934 38.5427H49.5962C51.0071 38.5427 52.1615 37.6572 52.1615 36.575V23.6866C52.1615 22.6041 51.0071 21.7189 49.5962 21.7189H41.5154C41.601 18.4063 42.6275 15.7503 44.5083 13.7495C46.0475 12.1428 48.3563 10.8311 51.4775 9.81409Z" fill="white"/>
</svg>
