<svg width="53" height="41" fill="none" xmlns="http://www.w3.org/2000/svg"><path d="M21.292 9.815c1.326-.426 1.881-1.64 1.283-2.623L20.48 3.814c-.599-.95-2.052-1.377-3.335-.95-3.634 1.18-6.755 2.721-9.235 4.59-3.036 2.198-5.088 4.723-6.2 7.51C.6 17.784 0 21.622 0 26.508v10.068c0 1.082 1.154 1.968 2.565 1.968h16.803c1.411 0 2.566-.886 2.566-1.968V23.688c0-1.083-1.155-1.968-2.566-1.968H11.33c.086-3.313 1.112-5.969 2.993-7.97 1.54-1.606 3.848-2.918 6.97-3.935zm30.185-.001c1.326-.426 1.881-1.64 1.283-2.623l-2.095-3.345c-.599-.951-2.052-1.378-3.335-.951-3.591 1.18-6.67 2.722-9.192 4.558-3.036 2.23-5.13 4.755-6.243 7.543-1.112 2.754-1.667 6.592-1.667 11.511v10.068c0 1.082 1.154 1.968 2.565 1.968h16.803c1.411 0 2.566-.886 2.566-1.968V23.687c0-1.083-1.155-1.968-2.566-1.968h-8.08c.085-3.313 1.111-5.969 2.992-7.97 1.54-1.606 3.848-2.918 6.97-3.935z" fill="#fff"/></svg>